solid ascii
  facet normal 0.000000e+000 0.000000e+000 1.000000e+000
    outer loop
      vertex   -9.198898e+001 1.253109e+002 4.000000e+000
      vertex   -9.998898e+001 1.253109e+002 4.000000e+000
      vertex   -9.198898e+001 1.247109e+002 4.000000e+000
    endloop
  endfacet
  facet normal 0.000000e+000 0.000000e+000 7.478976e-002
    outer loop
      vertex   -9.198898e+001 1.247109e+002 4.000000e+000
      vertex   -9.998898e+001 1.253109e+002 4.000000e+000
      vertex   -9.998898e+001 1.247109e+002 4.000000e+000
    endloop
  endfacet
  facet normal 0.000000e+000 0.000000e+000 -1.000000e+000
    outer loop
      vertex   -9.198898e+001 1.247109e+002 2.000000e+000
      vertex   -9.998898e+001 1.247109e+002 2.000000e+000
      vertex   -9.198898e+001 1.253109e+002 2.000000e+000
    endloop
  endfacet
  facet normal -0.000000e+000 0.000000e+000 -7.478976e-002
    outer loop
      vertex   -9.198898e+001 1.253109e+002 2.000000e+000
      vertex   -9.998898e+001 1.247109e+002 2.000000e+000
      vertex   -9.998898e+001 1.253109e+002 2.000000e+000
    endloop
  endfacet
  facet normal 0.000000e+000 -1.000000e+000 0.000000e+000
    outer loop
      vertex   -9.998898e+001 1.247109e+002 4.000000e+000
      vertex   -9.998898e+001 1.247109e+002 2.000000e+000
      vertex   -9.198898e+001 1.247109e+002 4.000000e+000
    endloop
  endfacet
  facet normal 0.000000e+000 -9.701425e-001 -0.000000e+000
    outer loop
      vertex   -9.198898e+001 1.247109e+002 4.000000e+000
      vertex   -9.998898e+001 1.247109e+002 2.000000e+000
      vertex   -9.198898e+001 1.247109e+002 2.000000e+000
    endloop
  endfacet
  facet normal -1.000000e+000 -0.000000e+000 -0.000000e+000
    outer loop
      vertex   -9.998898e+001 1.253109e+002 4.000000e+000
      vertex   -9.998898e+001 1.253109e+002 2.000000e+000
      vertex   -9.998898e+001 1.247109e+002 4.000000e+000
    endloop
  endfacet
  facet normal -2.873472e-001 0.000000e+000 0.000000e+000
    outer loop
      vertex   -9.998898e+001 1.247109e+002 4.000000e+000
      vertex   -9.998898e+001 1.253109e+002 2.000000e+000
      vertex   -9.998898e+001 1.247109e+002 2.000000e+000
    endloop
  endfacet
  facet normal 0.000000e+000 1.000000e+000 0.000000e+000
    outer loop
      vertex   -9.198898e+001 1.253109e+002 4.000000e+000
      vertex   -9.198898e+001 1.253109e+002 2.000000e+000
      vertex   -9.998898e+001 1.253109e+002 4.000000e+000
    endloop
  endfacet
  facet normal 0.000000e+000 9.701425e-001 0.000000e+000
    outer loop
      vertex   -9.998898e+001 1.253109e+002 4.000000e+000
      vertex   -9.198898e+001 1.253109e+002 2.000000e+000
      vertex   -9.998898e+001 1.253109e+002 2.000000e+000
    endloop
  endfacet
  facet normal 1.000000e+000 -0.000000e+000 0.000000e+000
    outer loop
      vertex   -9.198898e+001 1.247109e+002 4.000000e+000
      vertex   -9.198898e+001 1.247109e+002 2.000000e+000
      vertex   -9.198898e+001 1.253109e+002 4.000000e+000
    endloop
  endfacet
  facet normal 2.873472e-001 0.000000e+000 0.000000e+000
    outer loop
      vertex   -9.198898e+001 1.253109e+002 4.000000e+000
      vertex   -9.198898e+001 1.247109e+002 2.000000e+000
      vertex   -9.198898e+001 1.253109e+002 2.000000e+000
    endloop
  endfacet
endsolid
