solid ascii
  facet normal 0.000000e+000 0.000000e+000 1.000000e+000
    outer loop
      vertex   -1.000000e+002 1.251000e+002 4.000000e+000
      vertex   -1.120000e+002 1.251000e+002 4.000000e+000
      vertex   -1.000000e+002 1.249000e+002 4.000000e+000
    endloop
  endfacet
  facet normal 0.000000e+000 0.000000e+000 1.666410e-002
    outer loop
      vertex   -1.000000e+002 1.249000e+002 4.000000e+000
      vertex   -1.120000e+002 1.251000e+002 4.000000e+000
      vertex   -1.120000e+002 1.249000e+002 4.000000e+000
    endloop
  endfacet
  facet normal 0.000000e+000 0.000000e+000 -1.000000e+000
    outer loop
      vertex   -1.000000e+002 1.249000e+002 3.000000e+000
      vertex   -1.120000e+002 1.249000e+002 3.000000e+000
      vertex   -1.000000e+002 1.251000e+002 3.000000e+000
    endloop
  endfacet
  facet normal -0.000000e+000 0.000000e+000 -1.666410e-002
    outer loop
      vertex   -1.000000e+002 1.251000e+002 3.000000e+000
      vertex   -1.120000e+002 1.249000e+002 3.000000e+000
      vertex   -1.120000e+002 1.251000e+002 3.000000e+000
    endloop
  endfacet
  facet normal 0.000000e+000 -1.000000e+000 0.000000e+000
    outer loop
      vertex   -1.120000e+002 1.249000e+002 4.000000e+000
      vertex   -1.120000e+002 1.249000e+002 3.000000e+000
      vertex   -1.000000e+002 1.249000e+002 4.000000e+000
    endloop
  endfacet
  facet normal 0.000000e+000 -9.965457e-001 -0.000000e+000
    outer loop
      vertex   -1.000000e+002 1.249000e+002 4.000000e+000
      vertex   -1.120000e+002 1.249000e+002 3.000000e+000
      vertex   -1.000000e+002 1.249000e+002 3.000000e+000
    endloop
  endfacet
  facet normal -1.000000e+000 -0.000000e+000 -0.000000e+000
    outer loop
      vertex   -1.120000e+002 1.251000e+002 4.000000e+000
      vertex   -1.120000e+002 1.251000e+002 3.000000e+000
      vertex   -1.120000e+002 1.249000e+002 4.000000e+000
    endloop
  endfacet
  facet normal -1.961133e-001 0.000000e+000 0.000000e+000
    outer loop
      vertex   -1.120000e+002 1.249000e+002 4.000000e+000
      vertex   -1.120000e+002 1.251000e+002 3.000000e+000
      vertex   -1.120000e+002 1.249000e+002 3.000000e+000
    endloop
  endfacet
  facet normal 0.000000e+000 1.000000e+000 0.000000e+000
    outer loop
      vertex   -1.000000e+002 1.251000e+002 4.000000e+000
      vertex   -1.000000e+002 1.251000e+002 3.000000e+000
      vertex   -1.120000e+002 1.251000e+002 4.000000e+000
    endloop
  endfacet
  facet normal 0.000000e+000 9.965457e-001 0.000000e+000
    outer loop
      vertex   -1.120000e+002 1.251000e+002 4.000000e+000
      vertex   -1.000000e+002 1.251000e+002 3.000000e+000
      vertex   -1.120000e+002 1.251000e+002 3.000000e+000
    endloop
  endfacet
  facet normal 1.000000e+000 -0.000000e+000 0.000000e+000
    outer loop
      vertex   -1.000000e+002 1.249000e+002 4.000000e+000
      vertex   -1.000000e+002 1.249000e+002 3.000000e+000
      vertex   -1.000000e+002 1.251000e+002 4.000000e+000
    endloop
  endfacet
  facet normal 1.961133e-001 0.000000e+000 0.000000e+000
    outer loop
      vertex   -1.000000e+002 1.251000e+002 4.000000e+000
      vertex   -1.000000e+002 1.249000e+002 3.000000e+000
      vertex   -1.000000e+002 1.251000e+002 3.000000e+000
    endloop
  endfacet
endsolid
