solid ascii
  facet normal 0.000000e+000 0.000000e+000 1.000000e+000
    outer loop
      vertex   -9.998898e+001 1.251609e+002 4.000000e+000
      vertex   -1.119890e+002 1.251609e+002 4.000000e+000
      vertex   -9.998898e+001 1.248609e+002 4.000000e+000
    endloop
  endfacet
  facet normal 0.000000e+000 0.000000e+000 2.499181e-002
    outer loop
      vertex   -9.998898e+001 1.248609e+002 4.000000e+000
      vertex   -1.119890e+002 1.251609e+002 4.000000e+000
      vertex   -1.119890e+002 1.248609e+002 4.000000e+000
    endloop
  endfacet
  facet normal 0.000000e+000 0.000000e+000 -1.000000e+000
    outer loop
      vertex   -9.998898e+001 1.248609e+002 2.000000e+000
      vertex   -1.119890e+002 1.248609e+002 2.000000e+000
      vertex   -9.998898e+001 1.251609e+002 2.000000e+000
    endloop
  endfacet
  facet normal -0.000000e+000 0.000000e+000 -2.499181e-002
    outer loop
      vertex   -9.998898e+001 1.251609e+002 2.000000e+000
      vertex   -1.119890e+002 1.248609e+002 2.000000e+000
      vertex   -1.119890e+002 1.251609e+002 2.000000e+000
    endloop
  endfacet
  facet normal 0.000000e+000 -1.000000e+000 0.000000e+000
    outer loop
      vertex   -1.119890e+002 1.248609e+002 4.000000e+000
      vertex   -1.119890e+002 1.248609e+002 2.000000e+000
      vertex   -9.998898e+001 1.248609e+002 4.000000e+000
    endloop
  endfacet
  facet normal 0.000000e+000 -9.863939e-001 -0.000000e+000
    outer loop
      vertex   -9.998898e+001 1.248609e+002 4.000000e+000
      vertex   -1.119890e+002 1.248609e+002 2.000000e+000
      vertex   -9.998898e+001 1.248609e+002 2.000000e+000
    endloop
  endfacet
  facet normal -1.000000e+000 -0.000000e+000 -0.000000e+000
    outer loop
      vertex   -1.119890e+002 1.251609e+002 4.000000e+000
      vertex   -1.119890e+002 1.251609e+002 2.000000e+000
      vertex   -1.119890e+002 1.248609e+002 4.000000e+000
    endloop
  endfacet
  facet normal -1.483382e-001 0.000000e+000 0.000000e+000
    outer loop
      vertex   -1.119890e+002 1.248609e+002 4.000000e+000
      vertex   -1.119890e+002 1.251609e+002 2.000000e+000
      vertex   -1.119890e+002 1.248609e+002 2.000000e+000
    endloop
  endfacet
  facet normal 0.000000e+000 1.000000e+000 0.000000e+000
    outer loop
      vertex   -9.998898e+001 1.251609e+002 4.000000e+000
      vertex   -9.998898e+001 1.251609e+002 2.000000e+000
      vertex   -1.119890e+002 1.251609e+002 4.000000e+000
    endloop
  endfacet
  facet normal 0.000000e+000 9.863939e-001 0.000000e+000
    outer loop
      vertex   -1.119890e+002 1.251609e+002 4.000000e+000
      vertex   -9.998898e+001 1.251609e+002 2.000000e+000
      vertex   -1.119890e+002 1.251609e+002 2.000000e+000
    endloop
  endfacet
  facet normal 1.000000e+000 -0.000000e+000 0.000000e+000
    outer loop
      vertex   -9.998898e+001 1.248609e+002 4.000000e+000
      vertex   -9.998898e+001 1.248609e+002 2.000000e+000
      vertex   -9.998898e+001 1.251609e+002 4.000000e+000
    endloop
  endfacet
  facet normal 1.483382e-001 0.000000e+000 0.000000e+000
    outer loop
      vertex   -9.998898e+001 1.251609e+002 4.000000e+000
      vertex   -9.998898e+001 1.248609e+002 2.000000e+000
      vertex   -9.998898e+001 1.251609e+002 2.000000e+000
    endloop
  endfacet
endsolid
